<?xml version="1.0" encoding="UTF-8"?>
<svg id="Layer_1" data-name="Layer 1" xmlns="http://www.w3.org/2000/svg" xmlns:xlink="http://www.w3.org/1999/xlink" viewBox="0 0 100 100">
  <defs>
    <style>
      .cls-1 {
        fill: none;
      }

      .cls-2 {
        fill: url(#linear-gradient);
      }

      .cls-3 {
        clip-path: url(#clippath);
      }

      .cls-4 {
        fill: #fff;
      }

      .cls-5 {
        fill: #2b9947;
      }
    </style>
    <clipPath id="clippath">
      <path class="cls-1" d="m38.03,53.52c-4.79,0-8.68,3.89-8.68,8.68v6.67h36.11c4.79,0,8.68-3.89,8.68-8.68v-6.67h-36.11Z"/>
    </clipPath>
    <linearGradient id="linear-gradient" x1="-119.46" y1="-.51" x2="-119.21" y2="-.51" gradientTransform="translate(21371.5 -30.61) scale(178.65 -178.65)" gradientUnits="userSpaceOnUse">
      <stop offset="0" stop-color="#3acb5f"/>
      <stop offset="1" stop-color="#00a099"/>
    </linearGradient>
  </defs>
  <g id="Artwork_17" data-name="Artwork 17">
    <g>
      <g class="cls-3">
        <rect class="cls-2" x="29.35" y="53.52" width="44.79" height="15.35"/>
      </g>
      <g>
        <path class="cls-4" d="m28.84,36.96l.95,5.68h-4.55l3.6-5.68Zm-.54-4.96l-12.3,17.98h4.66l2.56-4h7.14l.73,4h4.13l-3.74-17.98h-3.18Z"/>
        <polygon class="cls-4" points="37.46 32 34.15 49.98 38.07 49.98 41.38 32 37.46 32"/>
        <polygon class="cls-5" points="54.13 32 52 34.85 51.53 35.46 59.05 35.46 56.21 49.98 60.26 49.98 63.1 35.46 66.23 35.46 63.71 49.98 75.57 49.98 76.04 47.17 67.2 47.17 68.1 42.02 75.84 42.02 76.32 39.38 68.55 39.38 69.35 34.73 77.49 34.73 78.23 32 67.09 32 66.83 32 54.13 32"/>
        <path class="cls-5" d="m89.2,46.36c-1.63.24-3.94.42-4.48.42-.72,0-1.36-.12-1.9-.37-.55-.24-1.01-.57-1.37-.98-.37-.41-.65-.89-.85-1.44-.2-.56-.3-1.17-.3-1.81,0-.88.16-1.76.47-2.6.32-.85.76-1.61,1.31-2.28.56-.66,1.23-1.2,2-1.59.76-.39,1.48-.42,2.41-.42h.17l2.49-3.3h-1.84c-1.88-.02-3.28.23-4.56.81-1.22.55-2.3,1.31-3.22,2.26-.91.95-1.63,2.08-2.15,3.36-.51,1.28-.78,2.67-.78,4.13,0,1.1.19,2.11.57,3.02.37.9.91,1.7,1.59,2.35.68.65,1.51,1.16,2.45,1.51.07.03.14.05.21.08.88.3,1.87.46,2.93.46.8,0,1.55-.08,2.24-.24.3-.07.54-.14.76-.21.09-.03.18-.06.27-.09l.09-.04,2.27-3.15-.8.12Z"/>
        <path class="cls-4" d="m53.93,46.13l-2.35,3.26-.11.04c-.09.04-.18.07-.27.09-.21.07-.46.14-.76.21-.69.16-1.44.25-2.25.25-1.07,0-2.06-.16-2.95-.46-.08-.03-.15-.05-.21-.08-.95-.36-1.78-.87-2.47-1.52-.69-.66-1.23-1.46-1.6-2.37-.38-.91-.57-1.93-.57-3.03,0-1.47.26-2.87.78-4.15.52-1.28,1.24-2.42,2.15-3.37.92-.96,2-1.72,3.23-2.27,1.29-.58,2.69-.73,4.58-.71h1.94l-2.56,3.3h-.19c-.92,0-1.63.03-2.39.41-.77.39-1.44.92-1.99,1.58-.55.66-.99,1.42-1.31,2.26-.31.84-.47,1.71-.47,2.59,0,.64.1,1.24.29,1.79.19.55.47,1.03.84,1.43.36.4.82.72,1.36.96.54.24,1.17.36,1.88.36.54,0,2.85-.18,4.47-.42l.91-.13Z"/>
        <line class="cls-5" x1="65.72" y1="38.42" x2="66.83" y2="32"/>
        <path class="cls-4" d="m38.47,62.66s.64.7,1.73.7c.57,0,1.24-.34,1.24-1.01,0-1.07-2.83-1.1-2.83-3.06,0-1.29,1.24-2.2,2.62-2.2,1.54,0,2.23.78,2.23.78l-.71.97s-.6-.54-1.53-.54c-.66,0-1.28.44-1.28.99,0,1.04,2.83,1.05,2.83,3.06,0,1.2-1.09,2.22-2.59,2.22-1.71,0-2.52-.99-2.52-.99l.81-.93Z"/>
        <polygon class="cls-4" points="45.09 57.22 46.4 57.22 45.8 60.29 49.11 60.29 49.71 57.22 51.03 57.22 49.61 64.45 48.3 64.45 48.9 61.42 45.58 61.42 44.99 64.45 43.69 64.45 45.09 57.22"/>
        <path class="cls-4" d="m55.88,57.1c1.99,0,3.3,1.3,3.3,3.11,0,2.36-2.11,4.37-4.29,4.37-2,0-3.29-1.34-3.29-3.18,0-2.32,2.08-4.3,4.28-4.3m-.98,6.28c1.45,0,2.93-1.38,2.93-3.09,0-1.18-.81-1.99-1.96-1.99-1.48,0-2.93,1.36-2.93,3.03,0,1.21.81,2.05,1.96,2.05"/>
        <path class="cls-4" d="m61.15,57.22h2.59c.43,0,.81.07,1.12.23.61.31.96.93.96,1.7,0,1.17-.67,2.15-1.61,2.57-.34.15-.71.23-1.09.23h-1.58l-.49,2.5h-1.31l1.42-7.24Zm1.83,3.6c.25,0,.5-.04.7-.15.47-.24.78-.76.78-1.41,0-.56-.36-.91-1-.91h-1.23l-.49,2.47h1.23Z"/>
      </g>
    </g>
  </g>
</svg>