<?xml version="1.0" encoding="UTF-8"?>
<svg id="Layer_1" data-name="Layer 1" xmlns="http://www.w3.org/2000/svg" xmlns:xlink="http://www.w3.org/1999/xlink" viewBox="0 0 100 100">
  <defs>
    <style>
      .cls-1 {
        fill: none;
      }

      .cls-2 {
        fill: url(#linear-gradient);
      }

      .cls-3 {
        clip-path: url(#clippath);
      }

      .cls-4 {
        fill: #fff;
      }

      .cls-5 {
        fill: #373a36;
      }

      .cls-6 {
        fill: #2b9947;
      }
    </style>
    <clipPath id="clippath">
      <path class="cls-1" d="m38.05,55.61c-4.15,0-7.51,3.36-7.51,7.51v5.77h31.23c4.15,0,7.51-3.36,7.51-7.51v-5.77h-31.23Z"/>
    </clipPath>
    <linearGradient id="linear-gradient" x1="-.13" y1="-.52" x2=".09" y2="-.52" gradientTransform="translate(53.24 -30.61) scale(178.65 -178.65)" gradientUnits="userSpaceOnUse">
      <stop offset="0" stop-color="#3acb5f"/>
      <stop offset="1" stop-color="#00a099"/>
    </linearGradient>
  </defs>
  <g id="Artwork_18" data-name="Artwork 18">
    <g>
      <g class="cls-3">
        <rect class="cls-2" x="30.54" y="55.61" width="38.74" height="13.27"/>
      </g>
      <g>
        <path class="cls-5" d="m30.11,41.29l.82,4.92h-3.93l3.12-4.92Zm-.47-4.29l-10.64,15.55h4.03l2.21-3.46h6.17l.64,3.46h3.57l-3.23-15.55h-2.75Z"/>
        <polygon class="cls-5" points="37.56 37 34.7 52.55 38.08 52.55 40.95 37 37.56 37"/>
        <polygon class="cls-6" points="51.97 37 50.13 39.46 49.73 40 56.23 40 53.78 52.55 57.28 52.55 59.73 40 62.44 40 60.26 52.55 70.52 52.55 70.93 50.12 63.28 50.12 64.06 45.66 70.76 45.66 71.17 43.38 64.45 43.38 65.14 39.36 72.18 39.36 72.82 37 63.19 37 62.96 37 51.97 37"/>
        <path class="cls-6" d="m82.31,49.42c-1.41.21-3.41.37-3.88.37-.62,0-1.18-.11-1.65-.32-.47-.21-.87-.49-1.19-.84-.32-.35-.56-.77-.73-1.25-.17-.48-.26-1.01-.26-1.56,0-.77.14-1.52.41-2.25.27-.73.66-1.39,1.14-1.97.48-.57,1.06-1.04,1.73-1.38.66-.33,1.28-.36,2.08-.36h.15l2.15-2.85h-1.59c-1.62-.01-2.84.2-3.94.7-1.06.47-1.99,1.13-2.78,1.96-.79.82-1.41,1.8-1.86,2.9-.44,1.1-.67,2.31-.67,3.57,0,.95.17,1.83.49,2.61.32.78.78,1.47,1.38,2.04.59.56,1.3,1,2.12,1.31.06.02.12.04.18.07.76.26,1.62.4,2.54.4.69,0,1.34-.07,1.93-.21.26-.06.47-.12.65-.18.08-.02.16-.05.23-.08l.08-.03,1.97-2.73-.69.1Z"/>
        <path class="cls-5" d="m51.81,49.22l-2.03,2.82-.09.04c-.08.03-.16.06-.24.08-.18.06-.4.12-.66.18-.59.14-1.25.21-1.94.21-.92,0-1.78-.13-2.55-.4-.07-.02-.13-.04-.19-.07-.82-.31-1.54-.75-2.13-1.32-.6-.57-1.06-1.26-1.39-2.05-.33-.79-.49-1.67-.49-2.62,0-1.27.23-2.48.67-3.59.45-1.11,1.07-2.09,1.86-2.92.79-.83,1.73-1.49,2.79-1.97,1.11-.5,2.33-.63,3.96-.62h1.68l-2.22,2.85h-.17c-.8,0-1.41.03-2.06.36-.66.34-1.24.8-1.72,1.37-.48.57-.86,1.23-1.13,1.96-.27.72-.41,1.48-.41,2.24,0,.55.09,1.07.25,1.55.17.47.41.89.72,1.24.31.35.71.63,1.18.83.47.21,1.01.31,1.63.31.47,0,2.47-.16,3.87-.37l.79-.12Z"/>
        <line class="cls-6" x1="62" y1="42.55" x2="62.96" y2="37"/>
      </g>
      <g>
        <path class="cls-4" d="m38.44,63.52s.56.61,1.5.61c.49,0,1.08-.29,1.08-.87,0-.93-2.45-.95-2.45-2.65,0-1.12,1.08-1.9,2.27-1.9,1.33,0,1.93.68,1.93.68l-.62.84s-.52-.47-1.32-.47c-.57,0-1.11.38-1.11.86,0,.9,2.45.91,2.45,2.65,0,1.04-.94,1.92-2.24,1.92-1.48,0-2.18-.86-2.18-.86l.7-.8Z"/>
        <path class="cls-4" d="m44.16,58.81h1.13l-.52,2.65h2.87l.52-2.65h1.14l-1.23,6.26h-1.13l.51-2.63h-2.87l-.51,2.63h-1.13l1.22-6.26Z"/>
        <path class="cls-4" d="m53.49,58.7c1.72,0,2.86,1.13,2.86,2.69,0,2.05-1.83,3.78-3.71,3.78-1.73,0-2.85-1.16-2.85-2.75,0-2.01,1.8-3.72,3.7-3.72Zm-.85,5.43c1.25,0,2.53-1.19,2.53-2.67,0-1.02-.7-1.72-1.69-1.72-1.28,0-2.53,1.17-2.53,2.62,0,1.05.7,1.77,1.69,1.77Z"/>
        <path class="cls-4" d="m58.05,58.81h2.24c.37,0,.7.06.97.2.53.26.83.8.83,1.47,0,1.01-.58,1.86-1.39,2.22-.29.13-.62.2-.94.2h-1.37l-.42,2.16h-1.14l1.23-6.26Zm1.59,3.11c.22,0,.43-.04.61-.13.41-.21.68-.66.68-1.22,0-.48-.31-.78-.86-.78h-1.07l-.42,2.13h1.07Z"/>
      </g>
    </g>
  </g>
</svg>